<svg id="Calque_1" data-name="Calque 1" xmlns="http://www.w3.org/2000/svg" viewBox="0 0 99.21 99.21"><defs><style>.cls-1{fill:none;}</style></defs><title>bouclier_stroke</title><path class="cls-1" d="M33.86,37.41c.84,12.16,3.46,25.07,15.69,30h.11c12.23-4.93,14.85-17.83,15.69-30-7.76,1.6-14.09-3.87-15.74-5.47C48,33.54,41.62,39,33.86,37.41Zm12,6.74h1v7.31l-1,1.55Zm9.08,0L51.24,50a.69.69,0,0,0,0,.74L55,56.66H53.85l-3.41-5.37L47,56.66H45.88l8-12.52Z"/><path class="cls-1" d="M49.11,68.3C36.13,63,33.58,48.71,32.82,36.8a.5.5,0,0,1,.62-.52c8,2,14.51-4.09,15.66-5.26V25.7c-2.73,2.54-11.09,9.24-21.21,7C29,49.34,32.54,67,49.11,73.94Z"/><path d="M71.89,31.58a.51.51,0,0,0-.53.47C70.28,48.86,66.9,66.93,50.11,73.94V68.3C57,65.52,65,59.31,66.39,36.8a.5.5,0,0,0-.62-.52c-8,2-14.51-4.09-15.66-5.26V25.69a28.32,28.32,0,0,0,12.88,7,.51.51,0,0,0,.59-.38.5.5,0,0,0-.38-.59A27.42,27.42,0,0,1,50,24.18a.55.55,0,0,0-.75,0c-1,1.07-10.31,10.35-21.75,7.42a.5.5,0,0,0-.62.52c1,16.34,4.55,36,22.56,43a.56.56,0,0,0,.19,0,.5.5,0,0,0,.18,0c8.29-3.24,14.12-9.24,17.82-18.34,3.33-8.19,4.28-17.5,4.74-24.7A.5.5,0,0,0,71.89,31.58Zm-6.54,5.83c-.84,12.16-3.46,25.07-15.69,30h-.11c-12.23-4.93-14.85-17.83-15.69-30C41.62,39,48,33.54,49.61,31.94,51.26,33.54,57.59,39,65.35,37.41ZM27.9,32.72c10.11,2.21,18.48-4.49,21.21-7V31c-1.15,1.17-7.69,7.31-15.66,5.26a.5.5,0,0,0-.62.52C33.58,48.71,36.13,63,49.11,68.3v5.64C32.54,67,29,49.34,27.9,32.72Z"/><polygon points="46.86 44.15 45.88 44.15 45.88 53.01 46.86 51.46 46.86 44.15"/><path d="M47,56.66l3.43-5.37,3.41,5.37H55l-3.74-5.89a.69.69,0,0,1,0-.74L55,44.15H53.83l-8,12.52Z"/></svg>