<svg id="Calque_1" data-name="Calque 1" xmlns="http://www.w3.org/2000/svg" viewBox="0 0 99.21 99.21"><defs><style>.cls-1{fill:none;}</style></defs><title>cadena_stroke</title><path class="cls-1" d="M58.54,54.68A2.33,2.33,0,0,0,56.16,57a2.36,2.36,0,0,0,1.22,2.07.54.54,0,0,1,.28.48l0,4.3H59.3l0-4.31a.54.54,0,0,1,.29-.47,2.36,2.36,0,0,0,1.25-2h0A2.36,2.36,0,0,0,58.54,54.68Z"/><path class="cls-1" d="M55.05,39.18a3.59,3.59,0,0,1,1.08-2.54,3.45,3.45,0,0,1,2.56-1,3.61,3.61,0,0,1,3.58,3.64l0,4.81a15.52,15.52,0,0,1,2,.63l.1-5.42a5.7,5.7,0,0,0-5.64-5.74h0A5.7,5.7,0,0,0,53,39.17l-.1,5.46A15.44,15.44,0,0,1,55,44Z"/><polygon class="cls-1" points="71.47 29.72 71.51 25.6 26.46 25.23 26.4 29.35 71.47 29.72"/><path class="cls-1" d="M58.68,36.69a2.55,2.55,0,0,0-1.79.73,2.51,2.51,0,0,0-.75,1.78L56,43.79a15.52,15.52,0,0,1,2.6-.2,15.87,15.87,0,0,1,2.45.23l.11-4.58a2.53,2.53,0,0,0-2.5-2.55Z"/><path class="cls-1" d="M68.92,49a14.52,14.52,0,0,0-10.3-4.37h-.12A14.62,14.62,0,1,0,68.92,49ZM58.5,70.5h-.09a11.22,11.22,0,0,1,.09-22.44h.09A11.22,11.22,0,0,1,58.5,70.5Z"/><path class="cls-1" d="M58.58,49.06H58.5a10.22,10.22,0,0,0-.08,20.44h.09a10.22,10.22,0,0,0,.08-20.44ZM60.42,59.9l0,4.54a.54.54,0,0,1-.54.54h0l-2.77,0a.54.54,0,0,1-.54-.55l0-4.54a3.43,3.43,0,0,1,1.95-6.27h0a3.43,3.43,0,0,1,1.88,6.3Z"/><path d="M69.69,48.27a15.69,15.69,0,0,0-4.37-3.12l.11-5.89a6.78,6.78,0,0,0-6.72-6.83h-.06a6.78,6.78,0,0,0-6.77,6.72l-.11,5.94a15.62,15.62,0,0,0-7.64,7.82L26,52.78l.27-17,19.59.16h0a.5.5,0,0,0,0-1l-19.58-.16.07-4.42,45.08.37-.1,11.91a.5.5,0,0,0,.5.5h0a.5.5,0,0,0,.5-.5l.14-17.53a.5.5,0,0,0-.5-.5l-46-.38h0a.5.5,0,0,0-.5.49L25,53.27a.5.5,0,0,0,.5.51l18.24.15A15.67,15.67,0,0,0,58.37,75h.13A15.7,15.7,0,0,0,69.69,48.27ZM71.51,25.6l0,4.12L26.4,29.35l.07-4.12ZM61.08,43.81a15.87,15.87,0,0,0-2.45-.23,15.52,15.52,0,0,0-2.6.2l.11-4.59a2.51,2.51,0,0,1,.75-1.78,2.55,2.55,0,0,1,1.79-.73,2.53,2.53,0,0,1,2.5,2.55ZM53,39.17a5.7,5.7,0,0,1,5.69-5.65h0a5.7,5.7,0,0,1,5.64,5.74l-.1,5.42a15.52,15.52,0,0,0-2-.63l0-4.81a3.61,3.61,0,0,0-3.58-3.64,3.45,3.45,0,0,0-2.56,1,3.59,3.59,0,0,0-1.08,2.54L55,44a15.44,15.44,0,0,0-2.08.63ZM58.38,73.9a14.62,14.62,0,0,1,.11-29.24h.12a14.62,14.62,0,0,1-.24,29.23Z"/><path d="M58.59,48.06H58.5a11.22,11.22,0,0,0-.09,22.44h.09a11.22,11.22,0,0,0,.09-22.44ZM58.5,69.5h-.09a10.22,10.22,0,0,1,.08-20.44h.09A10.22,10.22,0,0,1,58.5,69.5Z"/><path d="M58.54,53.6h0a3.43,3.43,0,0,0-1.95,6.27l0,4.54a.54.54,0,0,0,.54.55l2.77,0h0a.54.54,0,0,0,.54-.54l0-4.54a3.44,3.44,0,0,0-1.88-6.3Zm2.33,3.46a2.36,2.36,0,0,1-1.25,2,.54.54,0,0,0-.29.47l0,4.31H57.62l0-4.3a.54.54,0,0,0-.28-.48A2.36,2.36,0,0,1,56.16,57a2.33,2.33,0,0,1,2.38-2.34,2.36,2.36,0,0,1,2.34,2.38Z"/><path d="M40,69.37l-3.69,4.74a.5.5,0,0,0,.79.62L40.79,70a.5.5,0,1,0-.79-.62Z"/><path d="M37.35,63.19a.5.5,0,0,0-.54-.46l-6,.5a.5.5,0,0,0,0,1h0l6-.5A.5.5,0,0,0,37.35,63.19Z"/></svg>