<svg id="Calque_1" data-name="Calque 1" xmlns="http://www.w3.org/2000/svg" viewBox="0 0 99.21 99.21"><title>cadena_fill</title><path d="M72.38,52l.13-26.86a.5.5,0,0,0-.5-.5l-46-.38h0a.5.5,0,0,0-.5.49L25,53.26a.5.5,0,0,0,.5.51l18.25.15A15.68,15.68,0,0,0,58.37,75h.13A15.72,15.72,0,0,0,74.2,59.41,15.55,15.55,0,0,0,72.38,52Z"/><path d="M40,69.37l-3.69,4.74a.5.5,0,0,0,.79.62L40.79,70a.5.5,0,1,0-.79-.62Z"/><path d="M37.35,63.19a.5.5,0,0,0-.54-.46l-6,.5a.5.5,0,0,0,0,1h0l6-.5A.5.5,0,0,0,37.35,63.19Z"/></svg>