<svg id="Calque_1" data-name="Calque 1" xmlns="http://www.w3.org/2000/svg" viewBox="0 0 22.68 22.68"><defs><style>.cls-1{fill:#1d1d1b;}</style></defs><title>cœur</title><path class="cls-1" d="M11.33,18.36a.25.25,0,0,1-.16-.06c-.28-.24-6.85-6-6.85-10.35a3.63,3.63,0,1,1,7.26,0,.25.25,0,1,1-.5,0,3.13,3.13,0,1,0-6.26,0c0,4.09,6.62,9.91,6.68,10a.25.25,0,0,1-.16.44Z"/><path class="cls-1" d="M11.33,8.2a.25.25,0,0,1-.25-.25,3.14,3.14,0,0,0-5.52-2,.25.25,0,0,1-.38-.32,3.64,3.64,0,0,1,6.4,2.36A.25.25,0,0,1,11.33,8.2Z"/><path class="cls-1" d="M11.33,18.36a.25.25,0,0,1-.16-.06s-.61-.54-1.45-1.38c-.28-.29-.6-.61-.92-1-2-2.21-4.48-5.39-4.48-8a.25.25,0,0,1,.5,0c0,2.46,2.36,5.53,4.35,7.67.32.35.63.67.91.95.82.83,1.42,1.35,1.43,1.36a.25.25,0,0,1-.17.44Z"/><path class="cls-1" d="M11.35,18.36a.25.25,0,0,1-.16-.44c.07-.06,6.68-5.89,6.68-10a3.13,3.13,0,0,0-4.58-2.78.25.25,0,1,1-.23-.44A3.64,3.64,0,0,1,18,6.28a3.6,3.6,0,0,1,.4,1.67c0,4.31-6.57,10.11-6.85,10.35A.25.25,0,0,1,11.35,18.36Z"/></svg>