<svg id="Calque_1" data-name="Calque 1" xmlns="http://www.w3.org/2000/svg" viewBox="0 0 99.21 99.21"><title>etoile_fill</title><path d="M61.5,54.34l13-12.53a.5.5,0,0,0-.35-.86H56.71L50.87,25.65a.5.5,0,0,0-.45-.32.49.49,0,0,0-.47.29L42.93,41H25.08a.5.5,0,0,0-.34.86L37.15,53.58l-.92,2a.5.5,0,0,0,.2.64l1.31.76L31,74.09a.5.5,0,0,0,.7.62l19-10.22,18,10.45a.5.5,0,0,0,.25.07.5.5,0,0,0,.47-.68S61.48,54.36,61.5,54.34Z"/><path d="M60.58,30.94l.14,0a.5.5,0,0,0,.48-.36l1.73-5.75a.5.5,0,0,0-1-.29l-1.73,5.75A.5.5,0,0,0,60.58,30.94Z"/><path d="M66.36,35.69a.5.5,0,0,0,.22-.05L72,33a.5.5,0,1,0-.44-.9l-5.4,2.64a.5.5,0,0,0,.22.95Z"/></svg>