<svg id="Calque_1" data-name="Calque 1" xmlns="http://www.w3.org/2000/svg" viewBox="0 0 22.68 22.68"><defs><style>.cls-1{fill:#1d1d1b;}</style></defs><title>etoile</title><path class="cls-1" d="M16.9,18.6a.24.24,0,0,1-.13,0L7.49,13.17a.25.25,0,0,1-.1-.32l4-8.63a.25.25,0,0,1,.23-.15h0a.25.25,0,0,1,.23.16l3.09,8.11a.25.25,0,1,1-.47.18L11.55,5,7.94,12.86l8.48,4.92-1.17-3.09a.25.25,0,1,1,.47-.18l1.41,3.75a.25.25,0,0,1-.23.34Z"/><path class="cls-1" d="M7.86,12.48a.25.25,0,0,1-.17-.07L4.1,9a.25.25,0,0,1,.17-.43H9.46a.25.25,0,0,1,0,.5H4.9L8,12a.25.25,0,0,1-.17.43Z"/><path class="cls-1" d="M6.11,18.53a.25.25,0,0,1-.23-.34l2-5a.25.25,0,0,1,.46.18L6.59,17.74l4.91-2.64a.25.25,0,1,1,.24.44l-5.51,3A.24.24,0,0,1,6.11,18.53Z"/><path class="cls-1" d="M14.66,12.69a.25.25,0,0,1-.17-.43l3.29-3.18H13.37a.25.25,0,0,1,0-.5h5a.25.25,0,0,1,.17.43l-3.74,3.61A.25.25,0,0,1,14.66,12.69Z"/></svg>