<svg id="Calque_1" data-name="Calque 1" xmlns="http://www.w3.org/2000/svg" viewBox="0 0 99.21 99.21"><defs><style>.cls-1{fill:none;}</style></defs><title>etoile_stroke</title><polygon class="cls-1" points="32.43 73.18 49.65 63.9 38.62 57.49 32.43 73.18"/><polygon class="cls-1" points="72.89 41.96 57.1 41.96 61.35 53.1 72.89 41.96"/><polygon class="cls-1" points="26.34 41.96 37.59 52.62 42.47 41.96 26.34 41.96"/><path d="M60.68,54.16h0a.52.52,0,0,0,0,.07.51.51,0,0,0,.06.1h0a.5.5,0,0,0,.16.11l.09,0,.1,0h0l.14,0h0l.1-.06.07,0h0l13-12.53a.5.5,0,0,0-.35-.86H56.71L50.87,25.65a.5.5,0,0,0-.45-.32.49.49,0,0,0-.47.29L42.93,41H25.08a.5.5,0,0,0-.34.86L37.15,53.58l-.92,2a.5.5,0,0,0,.2.64l1.31.76L31,74.09a.5.5,0,0,0,.7.62l19-10.22,18,10.45a.5.5,0,0,0,.72-.61l-4.9-13a.5.5,0,0,0-.94.35l4.4,11.7L37.34,55.58l13-28.46ZM72.89,42,61.35,53.1,57.1,42ZM32.43,73.18l6.19-15.69,11,6.41ZM26.34,42H42.47L37.59,52.62Z"/><path d="M60.58,30.94l.14,0a.5.5,0,0,0,.48-.36l1.73-5.75a.5.5,0,0,0-1-.29l-1.73,5.75A.5.5,0,0,0,60.58,30.94Z"/><path d="M66.36,35.69a.51.51,0,0,0,.22-.05L72,33a.5.5,0,0,0-.44-.9l-5.4,2.64a.5.5,0,0,0,.22.95Z"/></svg>