<svg id="Calque_1" data-name="Calque 1" xmlns="http://www.w3.org/2000/svg" viewBox="0 0 22.68 22.68"><defs><style>.cls-1{fill:#1d1d1b;}</style></defs><title>panier</title><path class="cls-1" d="M16.16,18.36h-.06a.25.25,0,0,1-.18-.31l1.89-7.12H4.87l1.06,4a.25.25,0,0,1-.48.13L4.3,10.74a.25.25,0,0,1,.24-.31H18.13a.25.25,0,0,1,.24.31l-2,7.43A.25.25,0,0,1,16.16,18.36Z"/><path class="cls-1" d="M16.16,18.36H6.52a.25.25,0,0,1,0-.5h9.64a.25.25,0,0,1,0,.5Z"/><path class="cls-1" d="M14.69,10.83a.25.25,0,0,1-.25-.25V7.9a3.09,3.09,0,0,0-6.17,0v2.68a.25.25,0,0,1-.5,0V7.9a3.59,3.59,0,0,1,7.17,0v2.68A.25.25,0,0,1,14.69,10.83Z"/><path class="cls-1" d="M6.52,18.36a.25.25,0,0,1-.17-.44l8.18-7.36a.25.25,0,1,1,.33.37L6.69,18.3A.25.25,0,0,1,6.52,18.36Z"/></svg>