<svg id="Calque_1" data-name="Calque 1" xmlns="http://www.w3.org/2000/svg" viewBox="0 0 22.68 22.68"><defs><style>.cls-1{fill:#1d1d1b;}</style></defs><title>profile</title><path class="cls-1" d="M9.21,18.5H9.15L4.42,17.34a.25.25,0,0,1-.19-.27L5.37,6.91a.25.25,0,0,1,.14-.2L10.58,4.2a.25.25,0,0,1,.2,0l2.91,1.05a.25.25,0,1,1-.17.47l-2.81-1L5.85,7.1,4.75,16.9l4.21,1V16.19a.25.25,0,0,1,.5,0v2.06a.25.25,0,0,1-.25.25Z"/><path class="cls-1" d="M11.26,17.18a3.5,3.5,0,0,1-3.49-3.49V10.21a.25.25,0,1,1,.5,0v3.48a3,3,0,1,0,6,0v-6a.25.25,0,0,1,.5,0v6A3.5,3.5,0,0,1,11.26,17.18Z"/><path class="cls-1" d="M13.46,18.5a.25.25,0,0,1-.25-.25V16.19a.25.25,0,0,1,.5,0v1.74l4.21-1L16.87,7.07,5.32,11.22a.25.25,0,1,1-.17-.47L17,6.5a.24.24,0,0,1,.22,0,.26.26,0,0,1,.12.19l1.11,10.36a.25.25,0,0,1-.19.27L13.52,18.5Z"/></svg>