<svg id="Calque_1" data-name="Calque 1" xmlns="http://www.w3.org/2000/svg" viewBox="0 0 22.68 22.68"><defs><style>.cls-1{fill:#1d1d1b;}</style></defs><title>robe</title><path class="cls-1" d="M14,9.42H8.67a.25.25,0,0,1-.25-.25V4.39a.25.25,0,0,1,.12-.21.25.25,0,0,1,.24,0L11.35,5.5l2.55-1.33a.25.25,0,0,1,.25,0,.25.25,0,0,1,.12.21V9.17A.25.25,0,0,1,14,9.42Zm-5.1-.5h4.85V4.81L11.47,6a.25.25,0,0,1-.23,0L8.92,4.8Z"/><path class="cls-1" d="M14,9.41H8.66a.25.25,0,1,1,0-.5H14a.25.25,0,0,1,0,.5Z"/><path class="cls-1" d="M13.72,18.53H9a.25.25,0,0,1-.13,0L4.39,15.66a.25.25,0,0,1-.07-.35l2.32-3.53a.25.25,0,0,1,.42.28L4.87,15.38,9,18h4.62l4.16-2.66-4-6.07A.25.25,0,0,1,13.88,9a.25.25,0,0,1,.35.07l4.13,6.28a.25.25,0,0,1,0,.19.25.25,0,0,1-.11.16l-4.43,2.83A.25.25,0,0,1,13.72,18.53Z"/><path class="cls-1" d="M9,18.53l-.09,0a.25.25,0,0,1-.14-.33l2.39-5.91a.25.25,0,0,1,.23-.16h0a.25.25,0,0,1,.23.16L14,18.19a.25.25,0,0,1-.46.19L11.34,13,9.18,18.38A.25.25,0,0,1,9,18.53Z"/></svg>