<svg id="Calque_1" data-name="Calque 1" xmlns="http://www.w3.org/2000/svg" viewBox="0 0 99.21 99.21"><defs><style>.cls-1{fill:none;}</style></defs><title>ruban_stroke</title><path class="cls-1" d="M59.86,27.82a8.8,8.8,0,0,1-6,6.14,8.8,8.8,0,0,1,6.14,6,8.8,8.8,0,0,1,6-6.14A8.8,8.8,0,0,1,59.86,27.82Z"/><path class="cls-1" d="M38,67.41c.21.08.36.14,3,6l4.35-11.26a18.12,18.12,0,0,1-9.2-3.89L31.74,69.8C37.67,67.28,37.82,67.32,38,67.41Z"/><path class="cls-1" d="M57.12,67.41c.21-.08.35-.14,6.3,2.39L58.94,58.29A18,18,0,0,1,50.76,62c-.36.06-.72.1-1.07.14l4.4,11.26C56.77,67.54,56.91,67.49,57.12,67.41Z"/><path d="M59.1,57.38a.48.48,0,0,0-.27.61l.12.3L63.42,69.8c-6-2.53-6.09-2.47-6.3-2.39s-.35.14-3,6l-4.4-11.26-.23-.59a.47.47,0,1,0-.88.35l.13.34,4.9,12.56a.48.48,0,0,0,.43.3h0a.47.47,0,0,0,.43-.28c1-2.13,2.51-5.48,3-6.45,1,.37,4.43,1.79,6.58,2.71a.47.47,0,0,0,.63-.61l-5-12.86v0A.47.47,0,0,0,59.1,57.38Z"/><path d="M46.23,61.39a.47.47,0,0,0-.61.27l-.2.51L41.07,73.43c-2.68-5.88-2.82-5.94-3-6s-.36-.13-6.3,2.4l4.48-11.52.11-.29a.47.47,0,0,0-.87-.36v0l-5,12.86a.47.47,0,0,0,.63.61c2.15-.92,5.55-2.35,6.58-2.71.51,1,2.05,4.31,3,6.45a.47.47,0,0,0,.43.28h0a.48.48,0,0,0,.43-.3L46.4,62.27l.1-.27A.47.47,0,0,0,46.23,61.39Z"/><path d="M69.23,33.38c-.36,0-8.8-.1-8.8-8.8a.5.5,0,0,0-1,0c0,.36-.1,8.8-8.8,8.8a.5.5,0,0,0,0,1c.36,0,8.8.1,8.8,8.8h0a.5.5,0,0,0,1,0,10.15,10.15,0,0,1,2.51-6.42A17.09,17.09,0,1,1,44.57,27.4a17.41,17.41,0,0,1,6.5.09.5.5,0,1,0,.2-1,18.43,18.43,0,0,0-6.88-.09,18.06,18.06,0,0,0-8.93,31.21.47.47,0,0,1,.87.36l-.11.29a18.12,18.12,0,0,0,9.2,3.89l.2-.51a.47.47,0,0,1,.88.34l-.1.27c.39,0,.78.05,1.17.05s.76,0,1.14-.05l-.13-.34a.47.47,0,1,1,.88-.35l.23.59c.36,0,.71-.08,1.07-.14a18,18,0,0,0,8.18-3.74l-.12-.3a.47.47,0,0,1,.87-.36,18,18,0,0,0,4-21.56,8.69,8.69,0,0,1,5.51-1.69.5.5,0,0,0,0-1ZM60,39.95a8.8,8.8,0,0,0-6.14-6,8.8,8.8,0,0,0,6-6.14,8.8,8.8,0,0,0,6.14,6A8.8,8.8,0,0,0,60,39.95Z"/><path d="M35.74,48.67a12.73,12.73,0,0,1-.61-2.22.5.5,0,0,0-1,.18A13.77,13.77,0,0,0,34.8,49,13.64,13.64,0,0,0,50,57.66a.5.5,0,0,0,.4-.58.51.51,0,0,0-.58-.4,12.64,12.64,0,0,1-14.07-8Z"/></svg>