<svg id="Calque_1" data-name="Calque 1" xmlns="http://www.w3.org/2000/svg" viewBox="0 0 99.21 99.21"><title>ruban_fill</title><path d="M69.23,33.38h0c-.36,0-8.8-.12-8.8-8.8v0a.5.5,0,0,0-1-.06.49.49,0,0,0,0,.09,10.81,10.81,0,0,1-1.36,4.92,18.39,18.39,0,0,0-6.8-3,18.07,18.07,0,0,0-19,27.4l.17.27q.36.54.75,1l.33.42c.23.28.46.55.71.81l.46.49c.22.22.45.43.69.65l0,0v0l-5,12.86a.47.47,0,0,0,.63.61c2.15-.92,5.55-2.35,6.58-2.71.51,1,2.05,4.31,3,6.45a.48.48,0,0,0,.43.28h0a.47.47,0,0,0,.43-.3l4.85-12.53a18,18,0,0,0,2.33,0l4.89,12.52a.48.48,0,0,0,.43.3h0a.48.48,0,0,0,.43-.28c1-2.13,2.51-5.48,3-6.45,1,.37,4.43,1.79,6.58,2.71a.47.47,0,0,0,.63-.61l-5-12.81a18.1,18.1,0,0,0,2.19-2.36A.49.49,0,0,0,62,55.1c.14-.18.28-.35.41-.54a18.06,18.06,0,0,0,2.83-6.43.5.5,0,0,0,.08-.19,18.45,18.45,0,0,0,.09-6.88,18,18,0,0,0-1.69-5,8.73,8.73,0,0,1,5.49-1.66h0a.5.5,0,0,0,0-1Z"/></svg>